<svg xmlns="http://www.w3.org/2000/svg" xmlns:xlink="http://www.w3.org/1999/xlink">
<symbol id="logo">
	<g>
		<path d="M78.1,15.6h20.4v6.9H86.3v6h10.4v6.9H86.3v11.4h-8.3V15.6z"/>
		<path d="M102.9,37.5V22.8h8.3v13.7c0,3.1,0.8,3.8,2.4,3.8c1.5,0,2.4-0.6,3.5-2.1V22.8h8.3v24h-6.7l-0.6-3.2h-0.2
			c-1.9,2.3-4.1,3.7-7.4,3.7C105.1,47.3,102.9,43.5,102.9,37.5z"/>
		<path d="M138.2,44.2H138l-0.7,2.6h-6.4V13.3h8.3v7.8l-0.2,3.5c1.7-1.5,3.8-2.4,5.9-2.4c5.7,0,9.4,4.8,9.4,12.1c0,8.3-4.9,13-10,13
			C142.1,47.3,140,46.3,138.2,44.2z M145.8,34.5c0-3.9-1.2-5.6-3.4-5.6c-1.2,0-2.2,0.5-3.3,1.7v8.8c1,0.9,2,1.2,3.1,1.2
			C144.1,40.6,145.8,39.1,145.8,34.5z"/>
		<path d="M158.5,37.5V22.8h8.3v13.7c0,3.1,0.8,3.8,2.4,3.8c1.5,0,2.4-0.6,3.5-2.1V22.8h8.3v24h-6.7l-0.6-3.2h-0.2
			c-1.9,2.3-4.1,3.7-7.4,3.7C160.7,47.3,158.5,43.5,158.5,37.5z"/>
		<path d="M186.5,13.3h8.1v17.8h0.2l6.6-8.4h8.9l-8.5,10l9,14h-8.9l-4.8-8.5l-2.5,2.8v5.8h-8.1V13.3z"/>
		<path d="M213.2,15.6c0-2.4,1.9-4.1,4.6-4.1s4.6,1.7,4.6,4.1c0,2.4-1.9,4.1-4.6,4.1S213.2,18,213.2,15.6z M213.7,22.8h8.3v24h-8.3
			V22.8z"/>
		<path d="M225.8,23l3.6-0.3h11.8v6.4h-15.5V23z M229,22.5c0-5.1,2.4-9.7,9.5-9.7c2.2,0,4,0.5,5.1,0.9l-1.4,6
			c-0.8-0.3-1.6-0.5-2.4-0.5c-1.5,0-2.5,0.7-2.5,3v24.6H229V22.5z"/>
		<path d="M243.6,34.8c0-8,5.8-12.6,11.9-12.6s11.9,4.6,11.9,12.6s-5.8,12.6-11.9,12.6S243.6,42.7,243.6,34.8z M258.9,34.8
			c0-3.6-1-6-3.5-6c-2.5,0-3.5,2.3-3.5,6s1,6,3.5,6C258,40.7,258.9,38.4,258.9,34.8z"/>
		<path d="M276.8,34.3L270,22.8h8.8l1.7,3.4c0.6,1.3,1.3,2.8,1.9,4.1h0.2c0.4-1.3,1-2.8,1.4-4.1l1.2-3.4h8.5L287,35.2l7.2,11.5h-8.8
			l-1.9-3.4c-0.7-1.3-1.4-2.8-2.1-4.1h-0.2c-0.5,1.3-1.1,2.7-1.6,4.1l-1.3,3.4h-8.5L276.8,34.3z"/>
		<path d="M306.5,42.7l2.4-2.8c2.3,2.4,5.4,3.9,8.7,3.9c4.1,0,6.6-2.1,6.6-5.1c0-3.2-2.3-4.2-5.3-5.5l-4.5-2
			c-2.9-1.3-6.4-3.5-6.4-8.1c0-4.8,4.2-8.4,9.9-8.4c3.7,0,7.1,1.6,9.3,3.9l-2.1,2.6c-1.9-1.8-4.2-3-7.2-3c-3.5,0-5.9,1.8-5.9,4.6
			c0,3,2.7,4.2,5.2,5.2l4.5,1.9c3.6,1.6,6.5,3.7,6.5,8.4c0,5-4.1,9-10.7,9C313.1,47.3,309.2,45.5,306.5,42.7z"/>
		<path d="M332.3,35.1c0-7.6,5.1-12.3,10.5-12.3c6,0,9.3,4.3,9.3,10.9c0,0.8-0.1,1.7-0.2,2.2h-15.7c0.3,4.9,3.3,8.1,7.8,8.1
			c2.2,0,4.1-0.7,5.8-1.9l1.4,2.6c-2,1.3-4.5,2.4-7.7,2.4C337.2,47.3,332.3,42.8,332.3,35.1z M348.6,33.2c0-4.7-2.1-7.2-5.8-7.2
			c-3.3,0-6.2,2.6-6.7,7.2H348.6z"/>
		<path d="M357.8,23.4h3.3l0.3,3.4h0.1c2.2-2.2,4.6-3.9,7.8-3.9c4.9,0,7.1,3.2,7.1,9.1v14.8h-3.9V32.5c0-4.3-1.3-6.2-4.4-6.2
			c-2.4,0-4,1.2-6.4,3.6v16.9h-3.9V23.4z"/>
		<path d="M382.4,35.1c0-7.6,4.8-12.3,10.1-12.3c2.7,0,4.5,1,6.5,2.7l-0.2-4v-9h3.9v34.2h-3.3l-0.3-2.8h-0.1
			c-1.8,1.8-4.3,3.3-7.1,3.3C386.2,47.3,382.4,42.9,382.4,35.1z M398.9,40.8V28.6c-2-1.8-3.8-2.4-5.7-2.4c-3.7,0-6.7,3.6-6.7,8.9
			c0,5.6,2.3,8.9,6.4,8.9C395,44,396.9,43,398.9,40.8z"/>
	</g>
</symbol>
<use xlink:href="#logo"/>
</svg>
